<svg width="258" height="242" viewBox="0 0 258 242" fill="none" xmlns="http://www.w3.org/2000/svg">
<g filter="url(#filter0_d_2_3498)">
<path d="M245.571 121.323C250.013 121.307 253.762 117.866 253.777 113.425C253.778 113.273 253.778 113.121 253.778 112.969C253.778 100.537 251.962 88.5298 248.58 77.1975C247.449 73.4095 244.017 70.7832 240.065 70.737C239.666 70.7324 239.266 70.73 238.866 70.73C183.275 70.73 138.209 115.796 138.209 171.387C138.209 188.101 142.283 203.863 149.491 217.735C151.942 222.305 154.763 226.815 157.947 231.264V231.264C159.174 232.919 161.296 233.63 163.277 233.064C175.702 229.513 187.334 224.086 197.849 217.109C202.043 214.327 203.105 208.734 200.569 204.386C190.597 187.292 180.673 170.17 170.748 153.047L170.744 153.041C167.924 148.175 165.103 143.309 162.282 138.444C160.217 134.883 158.165 131.315 155.95 127.463C154.458 124.869 156.325 121.629 159.317 121.619C186.787 121.52 213.313 121.424 240.132 121.326C241.969 121.336 243.777 121.329 245.564 121.323H245.571V121.323Z" fill="#0D0D0D"/>
<path d="M94.6338 233.102C96.6532 233.677 98.8162 232.951 100.066 231.264V231.264C103.251 226.815 106.072 222.305 108.522 217.735C115.731 203.863 119.804 188.101 119.804 171.387C119.804 115.796 74.7388 70.73 19.1475 70.73C18.661 70.73 18.1753 70.7335 17.6905 70.7404C13.7459 70.7963 10.3252 73.4209 9.19723 77.2011C5.81602 88.5324 4 100.539 4 112.969C4 113.044 4.00007 113.119 4.0002 113.194C4.00825 117.765 7.87079 121.307 12.4423 121.323V121.323H12.4496C14.2367 121.329 16.0448 121.336 17.8817 121.326C44.7006 121.424 71.2264 121.52 98.6965 121.619C101.689 121.629 103.555 124.869 102.063 127.463L102.062 127.465L102.05 127.487C99.84 131.33 97.7923 134.89 95.7316 138.444C92.9101 143.309 90.0897 148.175 87.2693 153.041L87.2655 153.047C77.3192 170.207 67.3729 187.367 57.3793 204.499C54.8404 208.851 55.9082 214.452 60.1117 217.23C70.6162 224.174 82.2315 229.572 94.6338 233.102Z" fill="#0D0D0D"/>
<path d="M43.1885 22.1243C40.1587 24.9835 39.455 29.5158 41.4791 33.1569C42.3895 34.7945 43.3296 36.3957 44.2996 37.9603C52.709 51.1391 64.3227 62.5481 78.7972 70.905C126.941 98.7006 188.501 82.2055 216.297 34.062C216.412 33.8626 216.527 33.663 216.64 33.4632C218.687 29.8624 217.986 25.3561 214.986 22.5003C205.694 13.6544 195.041 6.22542 183.373 0.559555C180.635 -0.770186 177.366 0.327644 175.835 2.95859V2.95859C174.935 4.50517 174.024 6.0699 173.112 7.66769C159.618 30.8444 146.272 53.7688 132.452 77.5092C130.946 80.0954 127.207 80.0917 125.707 77.5027L125.705 77.5L125.701 77.4921C123.475 73.6521 121.413 70.0943 119.363 66.529C116.578 61.6825 113.791 56.8367 111.004 51.9908L110.949 51.8949C102.102 36.5115 93.2556 21.1276 84.4431 5.7246C81.9238 1.32133 76.4859 -0.54109 71.972 1.77408C61.4173 7.18755 51.7341 14.0597 43.1885 22.1243Z" fill="#0D0D0D"/>
</g>
<defs>
<filter id="filter0_d_2_3498" x="0" y="-0.00666046" width="257.778" height="241.303" filterUnits="userSpaceOnUse" color-interpolation-filters="sRGB">
<feFlood flood-opacity="0" result="BackgroundImageFix"/>
<feColorMatrix in="SourceAlpha" type="matrix" values="0 0 0 0 0 0 0 0 0 0 0 0 0 0 0 0 0 0 127 0" result="hardAlpha"/>
<feOffset dy="4"/>
<feGaussianBlur stdDeviation="2"/>
<feComposite in2="hardAlpha" operator="out"/>
<feColorMatrix type="matrix" values="0 0 0 0 0 0 0 0 0 0 0 0 0 0 0 0 0 0 0.25 0"/>
<feBlend mode="normal" in2="BackgroundImageFix" result="effect1_dropShadow_2_3498"/>
<feBlend mode="normal" in="SourceGraphic" in2="effect1_dropShadow_2_3498" result="shape"/>
</filter>
</defs>
</svg>
