<svg width="40" height="40" viewBox="0 0 40 40" fill="none" xmlns="http://www.w3.org/2000/svg">
<rect x="40" y="40" width="40" height="40" rx="8" transform="rotate(180 40 40)" fill="#FAFAFA"/>
<rect x="39.5" y="39.5" width="39" height="39" rx="7.5" transform="rotate(180 39.5 39.5)" stroke="#212121" stroke-opacity="0.16"/>
<path d="M24.0002 28C23.7544 28 23.5086 27.9066 23.3211 27.719L16.2813 20.6792C15.9062 20.3048 15.9062 19.6968 16.2813 19.3217L23.3211 12.2813C23.6961 11.9062 24.3035 11.9062 24.6786 12.2813C25.0537 12.6557 25.0537 13.2638 24.6786 13.6388L18.3179 20.0002L24.6786 26.3609C25.0537 26.7359 25.0537 27.3433 24.6786 27.7184C24.4917 27.9066 24.2459 28 24.0002 28Z" fill="black"/>
</svg>
