<svg width="16" height="16" viewBox="0 0 16 16" fill="none" xmlns="http://www.w3.org/2000/svg">
<path d="M8 0C6.41775 0 4.87103 0.469192 3.55544 1.34824C2.23985 2.22729 1.21447 3.47672 0.608967 4.93853C0.0034663 6.40034 -0.15496 8.00887 0.153721 9.56072C0.462403 11.1126 1.22433 12.538 2.34315 13.6569C3.46197 14.7757 4.88743 15.5376 6.43928 15.8463C7.99113 16.155 9.59966 15.9965 11.0615 15.391C12.5233 14.7855 13.7727 13.7602 14.6518 12.4446C15.5308 11.129 16 9.58225 16 8C16 5.87827 15.1571 3.84344 13.6569 2.34315C12.1566 0.842855 10.1217 0 8 0ZM12.1505 6.33236L7.05964 11.4233C6.92325 11.5596 6.7383 11.6362 6.54546 11.6362C6.35261 11.6362 6.16766 11.5596 6.03127 11.4233L3.84946 9.24145C3.71698 9.10429 3.64367 8.92058 3.64533 8.72989C3.64699 8.5392 3.72347 8.35679 3.85832 8.22195C3.99316 8.08711 4.17557 8.01062 4.36626 8.00896C4.55694 8.00731 4.74065 8.08061 4.87782 8.21309L6.54546 9.88073L11.1222 5.304C11.2593 5.17152 11.4431 5.09822 11.6337 5.09987C11.8244 5.10153 12.0068 5.17802 12.1417 5.31286C12.2765 5.4477 12.353 5.63011 12.3547 5.8208C12.3563 6.01149 12.283 6.1952 12.1505 6.33236Z" fill="#0C163A"/>
</svg>
