<svg width="16" height="18" viewBox="0 0 16 18" fill="none" xmlns="http://www.w3.org/2000/svg">
<path d="M3.30775 17.5C2.80908 17.5 2.38308 17.3234 2.02975 16.9703C1.67658 16.6169 1.5 16.1909 1.5 15.6923V3.00001H0.5V1.50001H5V0.615509H11V1.50001H15.5V3.00001H14.5V15.6923C14.5 16.1974 14.325 16.625 13.975 16.975C13.625 17.325 13.1974 17.5 12.6923 17.5H3.30775ZM13 3.00001H3V15.6923C3 15.7821 3.02883 15.8558 3.0865 15.9135C3.14417 15.9712 3.21792 16 3.30775 16H12.6923C12.7692 16 12.8398 15.9679 12.9038 15.9038C12.9679 15.8398 13 15.7693 13 15.6923V3.00001ZM5.404 14H6.90375V5.00001H5.404V14ZM9.09625 14H10.596V5.00001H9.09625V14Z" fill="#B91C1C"/>
</svg>
