<svg width="40" height="40" viewBox="0 0 40 40" fill="none" xmlns="http://www.w3.org/2000/svg">
<rect x="39.5" y="39.5" width="39" height="39" rx="7.5" transform="rotate(180 39.5 39.5)" fill="#FAFAFA" stroke="#D1D5DB"/>
<path d="M10.5 13.9952C10.5 13.7218 10.7217 13.5 10.9952 13.5L19.0048 13.5C19.2783 13.5 19.5 13.7218 19.5 13.9952C19.5 14.2687 19.2783 14.4904 19.0048 14.4904L10.9952 14.4904C10.7217 14.4904 10.5 14.2687 10.5 13.9952Z" fill="#212121" stroke="#1F2937"/>
<path d="M10.5 19.9998C10.5 19.7262 10.7217 19.5046 10.9952 19.5046L29.0048 19.5046C29.2783 19.5046 29.5 19.7262 29.5 19.9998C29.5 20.2732 29.2783 20.4949 29.0048 20.4949L10.9952 20.4949C10.7217 20.4949 10.5 20.2732 10.5 19.9998Z" fill="#212121" stroke="#1F2937"/>
<path d="M10.5 26.0048C10.5 25.7313 10.7217 25.5096 10.9952 25.5096L23.0048 25.5096C23.2783 25.5096 23.5 25.7313 23.5 26.0048C23.5 26.2783 23.2783 26.5 23.0048 26.5L10.9952 26.5C10.7217 26.5 10.5 26.2783 10.5 26.0048Z" fill="#212121" stroke="#1F2937"/>
</svg>