<svg width="20" height="20" viewBox="0 0 20 20" fill="none" xmlns="http://www.w3.org/2000/svg">
<path d="M9.99992 16.6667C9.54159 16.6667 9.14936 16.5036 8.82325 16.1775C8.49659 15.8508 8.33325 15.4583 8.33325 15C8.33325 14.5417 8.49659 14.1492 8.82325 13.8225C9.14936 13.4964 9.54159 13.3333 9.99992 13.3333C10.4583 13.3333 10.8508 13.4964 11.1774 13.8225C11.5035 14.1492 11.6666 14.5417 11.6666 15C11.6666 15.4583 11.5035 15.8508 11.1774 16.1775C10.8508 16.5036 10.4583 16.6667 9.99992 16.6667ZM9.99992 11.6667C9.54159 11.6667 9.14936 11.5033 8.82325 11.1767C8.49659 10.8506 8.33325 10.4583 8.33325 10C8.33325 9.54168 8.49659 9.14918 8.82325 8.82251C9.14936 8.4964 9.54159 8.33334 9.99992 8.33334C10.4583 8.33334 10.8508 8.4964 11.1774 8.82251C11.5035 9.14918 11.6666 9.54168 11.6666 10C11.6666 10.4583 11.5035 10.8506 11.1774 11.1767C10.8508 11.5033 10.4583 11.6667 9.99992 11.6667ZM9.99992 6.66668C9.54159 6.66668 9.14936 6.50334 8.82325 6.17668C8.49659 5.85057 8.33325 5.45834 8.33325 5.00001C8.33325 4.54168 8.49659 4.14945 8.82325 3.82334C9.14936 3.49668 9.54159 3.33334 9.99992 3.33334C10.4583 3.33334 10.8508 3.49668 11.1774 3.82334C11.5035 4.14945 11.6666 4.54168 11.6666 5.00001C11.6666 5.45834 11.5035 5.85057 11.1774 6.17668C10.8508 6.50334 10.4583 6.66668 9.99992 6.66668Z" fill="#374151"/>
</svg>
