<svg width="24" height="24" viewBox="0 0 24 24" fill="none" xmlns="http://www.w3.org/2000/svg">
  <path d="M15 5V3H9V5L8 6V8.5C8 9.33 8.67 10 9.5 10C10.33 10 11 9.33 11 8.5V6H13V8.5C13 9.33 13.67 10 14.5 10C15.33 10 16 9.33 16 8.5V6L15 5Z" fill="#6B7280"/>
  <path d="M20 10V8H18V10.5C18 11.33 18.67 12 19.5 12C20.33 12 21 11.33 21 10.5V8H20V10Z" fill="#6B7280"/>
  <path d="M6 10V8H4V10.5C4 11.33 4.67 12 5.5 12C6.33 12 7 11.33 7 10.5V8H6V10Z" fill="#6B7280"/>
  <path d="M19 14H5C4.45 14 4 14.45 4 15V19C4 19.55 4.45 20 5 20H19C19.55 20 20 19.55 20 19V15C20 14.45 19.55 14 19 14ZM18 18H6V16H18V18Z" fill="#6B7280"/>
</svg> 